<?xml version="1.0" encoding="UTF-8"?>
<svg version="1.1" xmlns="http://www.w3.org/2000/svg" width="512" height="512">
<path d="M0 0 C2.94846068 0.00314748 5.8959015 -0.02035196 8.84423828 -0.0456543 C22.23420356 -0.09027055 35.14581187 1.11142326 48.34814453 3.31567383 C50.05357422 3.59785767 50.05357422 3.59785767 51.79345703 3.88574219 C54.389253 4.35197518 56.96081163 4.87071381 59.53564453 5.44067383 C60.92456909 5.74763184 60.92456909 5.74763184 62.34155273 6.06079102 C106.79224038 16.39661722 147.52755017 38.70475281 180.34814453 70.31567383 C181.33717773 71.26385986 181.33717773 71.26385986 182.34619141 72.23120117 C191.83444759 81.37564862 200.57434893 90.67301392 208.34814453 101.31567383 C209.20620605 102.46672399 210.06427904 103.6177656 210.92236328 104.76879883 C216.9599185 112.95843364 222.34271755 121.46105658 227.34814453 130.31567383 C227.75033203 131.02288574 228.15251953 131.73009766 228.56689453 132.45874023 C241.59231863 155.59413218 250.34115914 180.76529792 255.66064453 206.75317383 C255.80800049 207.47206787 255.95535645 208.19096191 256.10717773 208.93164062 C258.89654578 223.60727881 259.69707072 238.13236221 259.66381836 253.04296875 C259.66066663 255.98255869 259.68419379 258.92112963 259.70947266 261.8605957 C259.7541319 275.23373575 258.54865995 288.12984094 256.34814453 301.31567383 C256.06596069 303.02122437 256.06596069 303.02122437 255.77807617 304.76123047 C255.31181855 307.35693602 254.79308634 309.92842322 254.22314453 312.50317383 C254.01850586 313.42912354 253.81386719 314.35507324 253.60302734 315.30908203 C243.26720114 359.75976968 220.95906555 400.49507947 189.34814453 433.31567383 C188.71602051 433.9750293 188.08389648 434.63438477 187.43261719 435.3137207 C178.28816974 444.80197688 168.99080444 453.54187823 158.34814453 461.31567383 C157.19709437 462.17373534 156.04605276 463.03180834 154.89501953 463.88989258 C146.70383839 469.92804212 138.19010348 475.28662903 129.34814453 480.31567383 C128.71634277 480.68015625 128.08454102 481.04463867 127.43359375 481.42016602 C104.41393152 494.59585549 78.89469004 503.27924278 52.97314453 508.62817383 C52.26246826 508.77561035 51.55179199 508.92304688 50.81958008 509.07495117 C35.17706087 512.0603117 19.54144847 512.69048362 3.66064453 512.62817383 C2.69325348 512.62635101 1.72586243 512.6245282 0.72915649 512.62265015 C-13.60376524 512.57722209 -27.54959464 512.06833455 -41.65185547 509.31567383 C-42.54888184 509.15470215 -43.4459082 508.99373047 -44.37011719 508.82788086 C-93.05778671 500.01789234 -138.08191455 476.57460836 -173.65185547 442.31567383 C-174.31121094 441.6835498 -174.97056641 441.05142578 -175.64990234 440.40014648 C-185.13815852 431.25569904 -193.87805987 421.95833373 -201.65185547 411.31567383 C-202.50991699 410.16462366 -203.36798998 409.01358205 -204.22607422 407.86254883 C-210.26362943 399.67291402 -215.64642849 391.17029107 -220.65185547 382.31567383 C-221.05404297 381.60846191 -221.45623047 380.90125 -221.87060547 380.17260742 C-234.89602957 357.03721547 -243.64487008 331.86604973 -248.96435547 305.87817383 C-249.11171143 305.15927979 -249.25906738 304.44038574 -249.41088867 303.69970703 C-252.38474635 288.05341774 -253.02485909 272.57999336 -252.96435547 256.69067383 C-252.96220032 255.67276764 -252.96004517 254.65486145 -252.95782471 253.60610962 C-252.90815401 238.9970386 -252.65725738 224.6649153 -249.65185547 210.31567383 C-249.45317871 209.34082031 -249.25450195 208.3659668 -249.04980469 207.36157227 C-238.92918353 158.97969642 -217.01266777 114.99139114 -182.65185547 79.31567383 C-182.01973145 78.65631836 -181.38760742 77.99696289 -180.73632812 77.31762695 C-171.59188068 67.82937077 -162.29451538 59.08946943 -151.65185547 51.31567383 C-150.5008053 50.45761231 -149.34976369 49.59953932 -148.19873047 48.74145508 C-140.00909566 42.70389986 -131.50647271 37.32110081 -122.65185547 32.31567383 C-121.94464355 31.91348633 -121.23743164 31.51129883 -120.50878906 31.09692383 C-94.30394366 16.34337111 -65.36646428 6.81437176 -35.65185547 2.31567383 C-34.53375488 2.13834717 -33.4156543 1.96102051 -32.26367188 1.77832031 C-21.50231249 0.23401232 -10.86244537 -0.02412288 0 0 Z M-31.69091797 222.09301758 C-41.34451463 233.03504248 -46.20227859 245.85818204 -45.50341797 260.40551758 C-44.07423847 273.50632968 -37.7297299 285.76205941 -27.65185547 294.31567383 C-15.91551465 302.56881535 -3.68293622 306.42299347 10.66064453 304.81567383 C23.19248966 302.58050526 34.57307481 295.87388261 42.30908203 285.74926758 C50.70307185 273.29995356 53.91017327 260.56428161 51.26220703 245.71801758 C47.55515429 231.91954348 39.44508059 221.09692133 27.20361328 213.81958008 C7.27431144 203.32329936 -15.3005063 206.28144944 -31.69091797 222.09301758 Z " fill="#DACFCC" transform="translate(252.65185546875,-0.315673828125)"/>
<path d="M0 0 C10.96131265 5.25914158 20.33281796 14.64928173 29 23 C29.66080566 23.63357422 30.32161133 24.26714844 31.00244141 24.91992188 C40.48922289 34.0628697 49.22744533 43.35903898 57 54 C57.85806152 55.15105017 58.71613451 56.30209177 59.57421875 57.453125 C65.61177396 65.64275981 70.99457302 74.14538276 76 83 C76.4021875 83.70721191 76.804375 84.41442383 77.21875 85.14306641 C90.2441741 108.27845836 98.99301461 133.44962409 104.3125 159.4375 C104.45985596 160.15639404 104.60721191 160.87528809 104.7590332 161.6159668 C107.54840125 176.29160498 108.34892619 190.81668838 108.31567383 205.72729492 C108.3125221 208.66688487 108.33604926 211.6054558 108.36132812 214.54492188 C108.40598737 227.91806192 107.20051542 240.81416711 105 254 C104.71781616 255.70555054 104.71781616 255.70555054 104.42993164 257.44555664 C103.96367402 260.0412622 103.4449418 262.61274939 102.875 265.1875 C102.67036133 266.11344971 102.46572266 267.03939941 102.25488281 267.9934082 C91.91905661 312.44409585 69.61092102 353.17940564 38 386 C37.36787598 386.65935547 36.73575195 387.31871094 36.08447266 387.99804688 C26.93078074 397.4958951 17.59255113 406.14408483 7 414 C6.16210938 414.67160156 5.32421875 415.34320313 4.4609375 416.03515625 C3.75195312 416.60105469 3.04296875 417.16695313 2.3125 417.75 C1.73113281 418.21921875 1.14976562 418.6884375 0.55078125 419.171875 C0.03902344 419.44515625 -0.47273438 419.7184375 -1 420 C-4.38583048 418.87138984 -4.64960887 418.42419703 -6.42578125 415.51953125 C-6.8851709 414.77920654 -7.34456055 414.03888184 -7.81787109 413.27612305 C-8.5577124 412.05662964 -8.5577124 412.05662964 -9.3125 410.8125 C-10.39391227 409.06472103 -11.47596887 407.3173406 -12.55859375 405.5703125 C-13.40526611 404.19601074 -13.40526611 404.19601074 -14.26904297 402.79394531 C-17.09557672 398.23162482 -19.98669973 393.71087057 -22.875 389.1875 C-24.06008838 387.32694555 -25.24498275 385.4662675 -26.4296875 383.60546875 C-27.01975586 382.67911621 -27.60982422 381.75276367 -28.21777344 380.79833984 C-31.14654813 376.19976238 -34.07317691 371.59981973 -37 367 C-38.16665613 365.16665996 -39.3333228 363.33332663 -40.5 361.5 C-53.33333333 341.33333333 -66.16666667 321.16666667 -79 301 C-84.70839745 304.09611888 -84.70839745 304.09611888 -90.26171875 307.45703125 C-113.82749912 322.62075071 -144.89024237 326.61782899 -171.95654297 320.76806641 C-201.62327694 313.84287657 -227.77674201 296.08254305 -244.1875 270.25 C-248.58739386 263.11569461 -252.04364176 255.8557318 -255 248 C-255.38929688 246.98292969 -255.77859375 245.96585938 -256.1796875 244.91796875 C-260.49897876 232.89016133 -261.36922403 220.82632056 -261.3125 208.125 C-261.31034485 207.46602722 -261.3081897 206.80705444 -261.30596924 206.12811279 C-261.14360601 175.16929295 -248.64252529 148.74069143 -227.1875 126.75 C-206.49011562 106.32477278 -178.07360022 94.86803955 -149.0625 94.625 C-124.41575615 94.85432702 -99.68966752 102.10276644 -80.20703125 117.49609375 C-78.03192822 119.28155494 -78.03192822 119.28155494 -75 119 C-73.68513907 117.57737647 -73.68513907 117.57737647 -72.57421875 115.6171875 C-72.11499023 114.87388184 -71.65576172 114.13057617 -71.18261719 113.36474609 C-70.68922852 112.54312988 -70.19583984 111.72151367 -69.6875 110.875 C-68.60354931 109.11416164 -67.51888637 107.35376158 -66.43359375 105.59375 C-65.86882324 104.67078125 -65.30405273 103.7478125 -64.72216797 102.796875 C-61.94781865 98.29121214 -59.09806843 93.83428918 -56.25 89.375 C-55.06769241 87.5182393 -53.88540107 85.66146826 -52.703125 83.8046875 C-48.13403821 76.638307 -43.54989659 69.48157323 -38.96630859 62.32446289 C-33.44967883 53.70831089 -27.95145253 45.08060718 -22.46484375 36.4453125 C-20.04833022 32.64329436 -17.62251444 28.84738918 -15.19140625 25.0546875 C-14.56314941 24.07266357 -13.93489258 23.09063965 -13.28759766 22.07885742 C-12.09539824 20.21567219 -10.9012135 18.35375507 -9.70458984 16.4934082 C-6.25869851 11.10172804 -3.03428033 5.63387203 0 0 Z M-183.0390625 174.77734375 C-192.69265917 185.71936866 -197.55042312 198.54250821 -196.8515625 213.08984375 C-195.422383 226.19065585 -189.07787443 238.44638558 -179 247 C-167.26365918 255.25314152 -155.03108075 259.10731965 -140.6875 257.5 C-128.15565487 255.26483143 -116.77506972 248.55820878 -109.0390625 238.43359375 C-100.64507268 225.98427973 -97.43797126 213.24860778 -100.0859375 198.40234375 C-103.79299024 184.60386965 -111.90306394 173.7812475 -124.14453125 166.50390625 C-144.07383309 156.00762553 -166.64865083 158.96577562 -183.0390625 174.77734375 Z " fill="#DACFCC" transform="translate(404,47)"/>
<path d="M0 0 C0.95884094 -0.00626404 1.91768188 -0.01252808 2.90557861 -0.01898193 C17.03459171 -0.07736504 30.68742531 1.13522108 44.625 3.4375 C45.76291992 3.62546143 46.90083984 3.81342285 48.07324219 4.00708008 C50.6678607 4.47404766 53.23866518 4.99276091 55.8125 5.5625 C56.73844971 5.76713867 57.66439941 5.97177734 58.6184082 6.18261719 C90.3611827 13.56355588 121.36602822 27.03077816 147.625 46.4375 C147.05028331 50.33362008 145.91527391 52.98270346 143.80859375 56.296875 C142.92192017 57.70380615 142.92192017 57.70380615 142.01733398 59.13916016 C141.04969116 60.64808838 141.04969116 60.64808838 140.0625 62.1875 C139.05908569 63.77183838 139.05908569 63.77183838 138.03540039 65.38818359 C135.90697731 68.74342845 133.76720201 72.09103833 131.625 75.4375 C130.27073211 77.55983125 128.91656349 79.68222584 127.5625 81.8046875 C124.88903424 85.99014993 122.21005299 90.17201938 119.52734375 94.3515625 C115.87849011 100.03755035 112.24869179 105.73545362 108.625 111.4375 C96.71683957 130.16393286 84.7554311 148.85410828 72.625 167.4375 C68.48679536 166.56264841 65.46438455 164.5206665 62 162.1875 C37.26667542 146.02182449 7.4315973 139.37980358 -21.75 145.125 C-38.62478152 148.74845926 -54.59250209 155.05236492 -68.0703125 166.03125 C-70.375 167.4375 -70.375 167.4375 -72.36132812 167.24291992 C-74.88342411 166.23414269 -75.50466993 165.26672774 -76.8984375 162.95703125 C-77.58244629 161.84690674 -77.58244629 161.84690674 -78.28027344 160.71435547 C-78.7652832 159.90111816 -79.25029297 159.08788086 -79.75 158.25 C-80.82478224 156.49824454 -81.90033294 154.74696039 -82.9765625 152.99609375 C-83.53504883 152.07940918 -84.09353516 151.16272461 -84.66894531 150.21826172 C-87.43220222 145.71432694 -90.27993345 141.26503319 -93.125 136.8125 C-94.30735009 134.95576637 -95.48964057 133.09899478 -96.671875 131.2421875 C-101.24096179 124.075807 -105.82510341 116.91907323 -110.40869141 109.76196289 C-115.92532117 101.14581089 -121.42354747 92.51810718 -126.91015625 83.8828125 C-129.32666978 80.08079436 -131.75248556 76.28488918 -134.18359375 72.4921875 C-135.125979 71.01915161 -135.125979 71.01915161 -136.08740234 69.51635742 C-137.27960176 67.65317219 -138.4737865 65.79125507 -139.67041016 63.9309082 C-143.11630149 58.53922804 -146.34071967 53.07137203 -149.375 47.4375 C-121.4863847 25.23110842 -85.99002752 11.56266913 -51.375 4.4375 C-50.37388184 4.22722168 -49.37276367 4.01694336 -48.34130859 3.80029297 C-32.26539003 0.58103101 -16.33880745 0.04984061 0 0 Z " fill="#F0ECEC" transform="translate(256.375,-0.4375)"/>
<path d="M0 0 C22.10371028 18.38515792 38.22816057 44.65714378 41.76757812 73.47021484 C42.05800637 78.34885081 42.10235941 83.20880452 42.08007812 88.09521484 C42.0772583 88.75728943 42.07443848 89.41936401 42.0715332 90.10150146 C41.87068665 121.52546027 30.32896944 148.55682497 8.39257812 171.22021484 C-14.8712004 193.73143794 -44.49011318 204.1806734 -76.56445312 203.75146484 C-108.68423288 202.65090703 -136.12011765 186.55330642 -157.85742188 163.78271484 C-166.91511106 153.40993468 -173.40304402 141.30299563 -178.23242188 128.47021484 C-178.62171875 127.45314453 -179.01101562 126.43607422 -179.41210938 125.38818359 C-183.73140064 113.36037618 -184.6016459 101.2965354 -184.54492188 88.59521484 C-184.54276672 87.93624207 -184.54061157 87.27726929 -184.53839111 86.59832764 C-184.37602788 55.63950779 -171.87494717 29.21090628 -150.41992188 7.22021484 C-110.05793534 -32.61103778 -44.1907151 -35.01929015 0 0 Z M-106.27148438 55.24755859 C-115.92508104 66.1895835 -120.782845 79.01272305 -120.08398438 93.56005859 C-118.65480487 106.6608707 -112.31029631 118.91660042 -102.23242188 127.47021484 C-90.49608106 135.72335637 -78.26350262 139.57753449 -63.91992188 137.97021484 C-51.38807674 135.73504627 -40.0074916 129.02842363 -32.27148438 118.90380859 C-23.87749455 106.45449458 -20.67039314 93.71882263 -23.31835938 78.87255859 C-27.02541212 65.07408449 -35.13548582 54.25146235 -47.37695312 46.97412109 C-67.30625496 36.47784037 -89.88107271 39.43599046 -106.27148438 55.24755859 Z " fill="#FB6493" transform="translate(327.232421875,166.52978515625)"/>
<path d="M0 0 C4.62796591 2.52637753 9.17511137 5.10778894 13.625 7.9375 C38.79409065 23.02344186 69.96352001 25.47773562 98.02539062 18.49609375 C112.06599447 14.83332753 125.28636699 8.58999754 137 0 C141.03328155 3.57882729 143.57732947 7.82890161 146.375 12.375 C147.44742026 14.09536162 148.52035752 15.81540106 149.59375 17.53515625 C150.43099609 18.8811792 150.43099609 18.8811792 151.28515625 20.25439453 C154.11939932 24.79225011 156.99802256 29.30166362 159.875 33.8125 C161.05998253 35.67312187 162.24487774 37.53379936 163.4296875 39.39453125 C164.01975586 40.32088379 164.60982422 41.24723633 165.21777344 42.20166016 C168.14654813 46.80023762 171.07317691 51.40018027 174 56 C175.16665613 57.83334004 176.3333228 59.66667337 177.5 61.5 C181 67 181 67 184.5 72.5 C185.0782251 73.40862793 185.6564502 74.31725586 186.25219727 75.25341797 C187.41158189 77.07533123 188.57092477 78.89727107 189.73022461 80.71923828 C192.75795368 85.47752438 195.78654133 90.23526108 198.81640625 94.9921875 C199.75709961 96.46945312 199.75709961 96.46945312 200.71679688 97.9765625 C201.90923429 99.84913088 203.1019248 101.72153813 204.29492188 103.59375 C205.36536614 105.27496969 206.43275861 106.95813774 207.49658203 108.64355469 C208.49480783 110.20816583 209.51140517 111.76121376 210.54638672 113.30175781 C211.24852295 114.36281738 211.24852295 114.36281738 211.96484375 115.4453125 C212.38241943 116.06164551 212.79999512 116.67797852 213.23022461 117.31298828 C214 119 214 119 213 122 C211.50390625 123.20751953 211.50390625 123.20751953 209.5625 124.3828125 C208.8418335 124.82310791 208.12116699 125.26340332 207.37866211 125.71704102 C206.59370361 126.18166748 205.80874512 126.64629395 205 127.125 C203.7771228 127.85577759 203.7771228 127.85577759 202.52954102 128.60131836 C200.02843506 130.08312391 197.51695456 131.54530177 195 133 C194.30245605 133.40589355 193.60491211 133.81178711 192.88623047 134.22998047 C169.99087045 147.39917967 144.42715507 155.98820526 118.625 161.3125 C117.5589856 161.53365479 117.5589856 161.53365479 116.47143555 161.75927734 C100.82891634 164.74463787 85.19330394 165.3748098 69.3125 165.3125 C68.34510895 165.31067719 67.3777179 165.30885437 66.38101196 165.30697632 C52.04809023 165.26154826 38.10226083 164.75266072 24 162 C23.10297363 161.83902832 22.20594727 161.67805664 21.28173828 161.51220703 C-12.61340625 155.37891215 -48.46907932 142.22778884 -76 121 C-74.67724536 117.44791023 -73.10330349 114.34649228 -71.0859375 111.140625 C-70.2040979 109.73369385 -70.2040979 109.73369385 -69.30444336 108.29833984 C-68.3493689 106.78941162 -68.3493689 106.78941162 -67.375 105.25 C-66.37835327 103.66566162 -66.37835327 103.66566162 -65.36157227 102.04931641 C-59.2599563 92.36763785 -53.09098629 82.72889858 -46.91015625 73.09765625 C-43.2182643 67.34449589 -39.54303146 61.58089588 -35.875 55.8125 C-35.30515381 54.91644043 -34.73530762 54.02038086 -34.14819336 53.09716797 C-33.00462933 51.29872305 -31.86115569 49.50022065 -30.71777344 47.70166016 C-27.2398329 42.23166442 -23.75930952 36.76331077 -20.27807617 31.29541016 C-17.19570982 26.45337204 -14.11698576 21.6090626 -11.04296875 16.76171875 C-10.07520508 15.23708008 -10.07520508 15.23708008 -9.08789062 13.68164062 C-7.8420477 11.7187658 -6.59721946 9.7552465 -5.35351562 7.79101562 C-4.51916992 6.47713867 -4.51916992 6.47713867 -3.66796875 5.13671875 C-3.17578857 4.36030029 -2.6836084 3.58388184 -2.17651367 2.78393555 C-1 1 -1 1 0 0 Z " fill="#F0ECEC" transform="translate(187,347)"/>
<path d="M0 0 C1.40356445 1.67041016 1.40356445 1.67041016 2.86328125 4.0390625 C3.68892578 5.35934448 3.68892578 5.35934448 4.53125 6.70629883 C5.41296875 8.15105591 5.41296875 8.15105591 6.3125 9.625 C7.56874173 11.64209445 8.82526028 13.65901651 10.08203125 15.67578125 C10.72736816 16.71943848 11.37270508 17.7630957 12.03759766 18.83837891 C15.15159357 23.85532927 18.32631645 28.83318123 21.5 33.8125 C22.06243408 34.69953613 22.62486816 35.58657227 23.2043457 36.50048828 C24.01585083 37.77835205 24.01585083 37.77835205 24.84375 39.08203125 C25.62105469 40.31300537 25.62105469 40.31300537 26.4140625 41.56884766 C27.49449224 43.22508524 28.61655699 44.8547259 29.7734375 46.45849609 C30.33289063 47.23918457 30.89234375 48.01987305 31.46875 48.82421875 C32.23348633 49.85228638 32.23348633 49.85228638 33.01367188 50.90112305 C34.31487873 53.67005259 33.89173338 55.12320339 33 58 C31.6953125 60.359375 31.6953125 60.359375 30.125 62.75 C23.39689984 73.67307868 21.85986577 84.96261916 24.07421875 97.5859375 C26.09460269 105.03663608 29.53674065 112.40174367 34.79296875 118.09765625 C37 121 37 121 36.79101562 123.42578125 C35.99407754 126.01927357 35.05663439 127.8435926 33.55078125 130.08984375 C33.039104 130.86352295 32.52742676 131.63720215 32.00024414 132.43432617 C31.44328857 133.26037354 30.88633301 134.0864209 30.3125 134.9375 C29.12906157 136.72319887 27.94681339 138.509687 26.765625 140.296875 C26.14880859 141.22693359 25.53199219 142.15699219 24.89648438 143.11523438 C21.1397202 148.82969441 17.50219372 154.62048179 13.84692383 160.40014648 C10.30639027 165.98532381 6.69409865 171.51512637 3 177 C-1.72174054 174.72275729 -5.1564991 171.53108023 -9 168 C-9.56847656 167.49726563 -10.13695312 166.99453125 -10.72265625 166.4765625 C-23.44839146 154.62327722 -31.47758845 138.42415509 -37.375 122.3125 C-37.61379883 121.67272217 -37.85259766 121.03294434 -38.09863281 120.3737793 C-41.93423521 109.30132216 -42.36436538 97.73839934 -42.3125 86.125 C-42.31034485 85.46602722 -42.3081897 84.80705444 -42.30596924 84.12811279 C-42.13345322 51.23339623 -28.08652925 24.88670247 -5.3125 1.9140625 C-3 0 -3 0 0 0 Z " fill="#FB6393" transform="translate(185,169)"/>
<path d="M0 0 C6.61625673 0.52671318 12.17653535 2.85668848 18.25 5.4375 C19.30977051 5.88561035 20.36954102 6.3337207 21.46142578 6.79541016 C38.10107967 13.94383547 53.1440894 22.67008367 68 33 C67.42528331 36.89612008 66.29027391 39.54520346 64.18359375 42.859375 C63.59247803 43.7973291 63.0013623 44.7352832 62.39233398 45.70166016 C61.74723877 46.7076123 61.10214355 47.71356445 60.4375 48.75 C59.43408569 50.33433838 59.43408569 50.33433838 58.41040039 51.95068359 C56.28197731 55.30592845 54.14220201 58.65353833 52 62 C50.64573211 64.12233125 49.29156349 66.24472584 47.9375 68.3671875 C45.26403424 72.55264993 42.58505299 76.73451938 39.90234375 80.9140625 C36.25349011 86.60005035 32.62369179 92.29795362 29 98 C17.09183957 116.72643286 5.1304311 135.41660828 -7 154 C-11.09719478 153.1309483 -14.07383636 151.13064175 -17.5 148.8125 C-23.7802769 144.65640995 -30.1687668 141.19041111 -37 138 C-35.72640723 131.19964911 -34.1631313 124.5402268 -32.3125 117.875 C-32.05412354 116.93414551 -31.79574707 115.99329102 -31.52954102 115.02392578 C-29.57458727 107.95157597 -27.51538346 100.91202305 -25.4375 93.875 C-23.01828254 85.67877291 -20.8000407 77.46159674 -18.77319336 69.16015625 C-16.88743189 61.45265894 -14.77322041 53.81795963 -12.61621094 46.18261719 C-11.61148364 42.62387629 -10.61682865 39.06235487 -9.625 35.5 C-9.42753174 34.79101562 -9.23006348 34.08203125 -9.02661133 33.3515625 C-5.94746357 22.25362516 -2.98208287 11.12431955 0 0 Z " fill="#F0ECEC" transform="translate(336,13)"/>
<path d="M0 0 C0.68964844 0.45890625 1.37929687 0.9178125 2.08984375 1.390625 C15.50138995 10.14768398 28.36135288 15.05605001 44.7265625 11.96484375 C53.19167484 9.46975694 60.75438402 4.96155302 68 0 C68.66644531 1.10214844 69.33289063 2.20429688 70.01953125 3.33984375 C76.01629301 13.22449505 82.15883874 22.99557288 88.48193359 32.67431641 C90.79338953 36.21547582 93.09552752 39.76267821 95.39892578 43.30908203 C97.93101218 47.20709874 100.46538405 51.10362777 103 55 C88.86018345 70.4697993 61.90103807 77.89653764 41.72265625 79.14038086 C13.96005159 80.27545472 -12.67763032 72.92179637 -35 56 C-30.42026513 47.80643798 -25.41679686 39.94205828 -20.27954102 32.09130859 C-15.89032556 25.38149576 -11.5549387 18.63918977 -7.25 11.875 C-6.64148193 10.92061035 -6.03296387 9.9662207 -5.40600586 8.98291016 C-4.56307983 7.65718994 -4.56307983 7.65718994 -3.703125 6.3046875 C-3.20458008 5.52077637 -2.70603516 4.73686523 -2.19238281 3.92919922 C-0.97310584 2.02107213 -0.97310584 2.02107213 0 0 Z " fill="#FE97BC" transform="translate(222,291)"/>
<path d="M0 0 C6.49228021 -0.06102327 12.69287254 0.28670912 19.125 1.1875 C20.06786865 1.31842041 21.0107373 1.44934082 21.98217773 1.58422852 C29.06479279 2.6167325 36.06594409 3.93177247 43.0625 5.4375 C44.41529053 5.72693481 44.41529053 5.72693481 45.79541016 6.0222168 C52.98556848 7.63059345 59.98348259 9.76053773 67 12 C65.93871453 16.32045145 64.87238006 20.63961895 63.80175781 24.95776367 C63.43975945 26.4206535 63.07903873 27.88386019 62.71972656 29.34741211 C60.68877977 37.61586168 58.51073678 45.77814209 55.94677734 53.90112305 C54.34107016 59.15672936 53.02822706 64.48437476 51.6875 69.8125 C49.19590648 79.57933087 46.50663583 89.26146569 43.63012695 98.92114258 C41.03587101 107.70589004 38.76009713 116.56122392 36.49975586 125.43676758 C34.28676726 134.0606635 31.8077741 142.5507996 29 151 C28.43192627 150.82871582 27.86385254 150.65743164 27.27856445 150.48095703 C16.58464338 147.27915836 6.13306261 144.1979919 -5 143 C-4.34 142.67 -3.68 142.34 -3 142 C-3.00466782 140.8737471 -3.00933563 139.7474942 -3.0141449 138.58711243 C-3.04883632 126.33784508 -2.86823702 114.10139269 -2.59765625 101.85546875 C-2.55508479 99.86941291 -2.51264296 97.88335428 -2.47032166 95.89729309 C-2.38167003 91.75840347 -2.29159446 87.61954812 -2.20043945 83.48071289 C-2.08580905 78.27174567 -1.97457435 73.06271267 -1.86432838 67.85365105 C-1.38415833 45.23023233 -0.84511924 22.61309182 0 0 Z " fill="#DAD0CD" transform="translate(270,0)"/>
<path d="M0 0 C1.61086098 1.61086098 1.12733749 3.34538863 1.12939453 5.57299805 C1.13254669 6.54879318 1.13569885 7.52458832 1.13894653 8.529953 C1.13591019 10.12967705 1.13591019 10.12967705 1.1328125 11.76171875 C1.13376923 12.85909866 1.13472595 13.95647858 1.13571167 15.08711243 C1.13639442 17.42339128 1.13453358 19.75967202 1.13037109 22.09594727 C1.12509024 25.62716103 1.1302781 29.1582437 1.13671875 32.68945312 C1.13968588 43.83251243 1.11300067 54.90168462 0 66 C-0.63365479 65.97897217 -1.26730957 65.95794434 -1.92016602 65.9362793 C-16.99037328 65.5289764 -30.30228757 68.89556964 -41.875 78.9375 C-42.93140499 79.94307379 -43.97984564 80.95766837 -45 82 C-48.29898682 78.03969555 -51.10558067 73.89626563 -53.875 69.5625 C-54.57532349 68.47388672 -54.57532349 68.47388672 -55.28979492 67.36328125 C-59.90522581 60.17752633 -64.48372365 52.96784701 -69.05224609 45.75219727 C-72.25508234 40.70214167 -75.51891672 35.7124072 -78.92260742 30.79492188 C-80 29 -80 29 -80 27 C-80.66 26.67 -81.32 26.34 -82 26 C-57.54949835 7.35649249 -30.85114242 -1.61719698 0 0 Z " fill="#FE97BC" transform="translate(265,142)"/>
<path d="M0 0 C19.28421344 2.26873099 19.28421344 2.26873099 25.5 4.4375 C26.7271875 4.84871094 27.954375 5.25992188 29.21875 5.68359375 C30.1365625 6.11800781 31.054375 6.55242187 32 7 C33.30862248 10.92586744 32.15243648 13.46475317 30.9375 17.25 C28.79399907 24.20786607 26.86726619 31.19684291 25.0625 38.25 C22.24126503 49.22597821 19.16655153 60.11918997 16 71 C11 70 11 70 -1 65 C-0.67 43.55 -0.34 22.1 0 0 Z " fill="#FB6493" transform="translate(266,143)"/>
<path d="M0 0 C6.44999252 1.61249813 11.65007964 4.38847424 17.25 7.875 C17.93513672 8.29765137 18.62027344 8.72030273 19.32617188 9.15576172 C23.3961476 11.74565602 26.72373542 14.45706272 30 18 C29.55503174 18.41918701 29.11006348 18.83837402 28.65161133 19.27026367 C27.01015156 20.98936825 25.82679707 22.66034495 24.57421875 24.67578125 C24.11426514 25.41054687 23.65431152 26.1453125 23.18041992 26.90234375 C22.68775635 27.69769531 22.19509277 28.49304688 21.6875 29.3125 C20.61504343 31.02763153 19.54210672 32.74246291 18.46875 34.45703125 C17.90542969 35.3588916 17.34210938 36.26075195 16.76171875 37.18994141 C13.76147206 41.97553444 10.72363326 46.73712482 7.6875 51.5 C6.56637181 53.26039474 5.44527721 55.02081086 4.32421875 56.78125 C3.51863525 58.04582031 3.51863525 58.04582031 2.69677734 59.3359375 C-0.20358303 63.88971194 -3.10173957 68.44488886 -6 73 C-10.27859809 69.8623614 -14.26689156 66.787806 -18 63 C-8.22096144 26.5204136 -8.22096144 26.5204136 -3.25 9.5 C-2.93361572 8.41223267 -2.93361572 8.41223267 -2.61083984 7.30249023 C-1.12009165 2.24018329 -1.12009165 2.24018329 0 0 Z " fill="#FE96BC" transform="translate(299,151)"/>
<path d="M0 0 C10.87767473 9.4890354 15.84610554 27.07465569 17 41 C17.58277996 51.65654791 17.5165067 61.81619661 14 72 C13.63648438 73.07765625 13.27296875 74.1553125 12.8984375 75.265625 C6.27616585 93.63708829 6.27616585 93.63708829 -1 98 C-4.75245951 97.93416738 -7.06312483 97.81598805 -9.9375 95.3125 C-11.42616692 92.07246023 -11.59575653 90.57453918 -11 87 C-10.14963438 85.51469472 -9.2462658 84.05934128 -8.3125 82.625 C0.4540554 68.97659504 2.89920518 51.66748909 -0.1875 35.9375 C-2.09267224 27.86747797 -4.88105078 20.18499879 -9.375 13.1875 C-11.4020294 9.21140387 -11.30221482 7.23219816 -10 3 C-7.09493645 -0.33544334 -4.27589606 -0.85517921 0 0 Z " fill="#F1EAEB" transform="translate(321,207)"/>
</svg>
